<svg xmlns="http://www.w3.org/2000/svg" viewBox="0 0 540 360" role="img" aria-label="Butterfly valve cross-section">
  <defs>
    <linearGradient id="g1" x1="0" x2="0" y1="0" y2="1"><stop offset="0%" stop-color="#f8fafc"/><stop offset="100%" stop-color="#e2e8f0"/></linearGradient>
    <linearGradient id="gValve" x1="0" x2="0" y1="0" y2="1"><stop offset="0%" stop-color="#0f6cbd"/><stop offset="100%" stop-color="#062a4d"/></linearGradient>
  </defs>
  <rect width="540" height="360" fill="url(#g1)"/>
  <g fill="none" stroke="#0a4277" stroke-width="2.5">
    <circle cx="270" cy="180" r="120"/>
    <circle cx="270" cy="180" r="95"/>
    <ellipse cx="270" cy="180" rx="92" ry="22"/>
    <line x1="178" y1="180" x2="362" y2="180"/>
    <line x1="270" y1="60" x2="270" y2="20" stroke-width="6"/>
    <rect x="245" y="20" width="50" height="50" rx="4"/>
    <line x1="252" y1="35" x2="288" y2="35"/>
    <line x1="252" y1="50" x2="288" y2="50"/>
    <line x1="178" y1="105" x2="362" y2="105" stroke="#94a3b8" stroke-width="1" stroke-dasharray="2 4"/>
    <line x1="178" y1="255" x2="362" y2="255" stroke="#94a3b8" stroke-width="1" stroke-dasharray="2 4"/>
    <g stroke="#0a4277" stroke-width="2">
      <line x1="120" y1="180" x2="178" y2="180"/>
      <line x1="362" y1="180" x2="420" y2="180"/>
    </g>
    <circle cx="270" cy="60" r="8" fill="#0a4277"/>
    <circle cx="270" cy="300" r="8" fill="#0a4277"/>
  </g>
  <circle cx="270" cy="180" r="92" fill="url(#gValve)" opacity="0.14"/>
  <ellipse cx="270" cy="180" rx="92" ry="22" fill="url(#gValve)" opacity="0.4"/>
  <g font-family="ui-sans-serif, system-ui, sans-serif" font-size="12" fill="#0a4277">
    <text x="20" y="180" text-anchor="start">FLOW ’</text>
    <text x="470" y="180">’ FLOW</text>
    <text x="240" y="15" font-size="11">Stem / actuator</text>
    <text x="115" y="80">Body</text>
    <text x="385" y="80">Seat (EPDM)</text>
    <text x="115" y="280">Disc</text>
    <text x="385" y="280">(rotates 90°)</text>
    <text x="270" y="345" text-anchor="middle" font-weight="700" font-size="13">SUPERTECH Butterfly Valve</text>
  </g>
</svg>
